<?xml version="1.0" encoding="utf-8"?>
<!-- Generator: Adobe Illustrator 22.1.0, SVG Export Plug-In . SVG Version: 6.00 Build 0)  -->
<svg version="1.1" id="レイヤー_1" xmlns="http://www.w3.org/2000/svg" xmlns:xlink="http://www.w3.org/1999/xlink" x="0px"
	 y="0px" width="728.1px" height="337.9px" viewBox="0 0 728.1 337.9" style="enable-background:new 0 0 728.1 337.9;"
	 xml:space="preserve">
<g>
	<path d="M722.1,267.5h-30.6V156.2c0-30.5-11.6-58.1-47.5-58.1c-26.4,0-52.7,20.7-52.7,53.2v115.2h-30.6V127.6
		c0-19.7-1.1-33.5-1.1-49.3h27.4l2.1,30.5h1.1c9.5-18.7,33.7-35.5,65.4-35.5c25.3,0,68.5,13.8,68.5,77.8v116.2H722.1z"/>
	<path d="M470,250.7c0-21.7-14.8-46.3-40.1-46.3s-40.1,24.6-40.1,46.3S404.6,297,430,297C455.3,296,470,271.4,470,250.7z M393,42.9
		c-25.3,0-40.1,24.6-40.1,46.3s14.8,46.3,40.1,46.3c25.3,0,40.1-24.6,40.1-46.3C433.1,66.5,418.4,42.9,393,42.9z M362.5,223.1
		c-16.9-2-31.6-13.8-31.6-28.6c0-18.7,16.9-28.6,33.7-35.5l0,0c-10.5-4.9-20-11.8-27.4-21.7c-10.5-13.8-16.9-31.5-16.9-49.3
		c0-37.4,27.4-75.8,72.8-75.8l0,0c15.8,0,31.6,4.9,43.2,14.8l0,0h50.6v24.6h-30.6l0,0c5.3,10.8,8.4,23.6,8.4,36.4
		c0,36.4-25.3,72.9-67.5,75.8l0,0c-14.8,4.9-29.5,12.8-29.5,24.6c0,3.9,3.2,6.9,8.4,8.9l0,0c13.7-15.8,31.6-23.6,52.7-23.6
		c45.3,0,72.8,38.4,72.8,75.8c0,12.8-3.2,25.6-8.4,36.4l0,0h30.6v24.6h-50.6l0,0c-12.7,9.9-27.4,14.8-43.2,14.8l0,0
		c-45.3,0-72.8-38.4-72.8-75.8C357.2,240.9,359.3,232,362.5,223.1L362.5,223.1z"/>
	<path d="M280.2,267.5h-30.6V159.1c0-36.4-13.7-60.1-44.3-60.1c-25.3,0-47.5,21.7-47.5,50.2v119.2h-30.6V151.2
		c0-30.5-13.7-53.2-42.2-53.2c-26.4,0-49.6,24.6-49.6,54.2v115.2H5V127.6c0-19.7-1.1-33.5-1.1-49.3h27.4l2.1,30.5h1.1
		C45.1,91.1,64,74.4,95.7,74.4c26.4,0,46.4,14.8,54.8,37.4h1.1c13.7-22.7,33.7-37.4,65.4-37.4c25.3,0,64.3,14.8,64.3,79.8v113.3
		H280.2z"/>
</g>
</svg>
