<?xml version="1.0" encoding="utf-8"?>
<!-- Generator: Adobe Illustrator 22.1.0, SVG Export Plug-In . SVG Version: 6.00 Build 0)  -->
<svg version="1.1" id="レイヤー_1" xmlns="http://www.w3.org/2000/svg" xmlns:xlink="http://www.w3.org/1999/xlink" x="0px"
	 y="0px" width="728.1px" height="337.918px" viewBox="0 0 728.1 337.918" style="enable-background:new 0 0 728.1 337.918;"
	 xml:space="preserve">
<style type="text/css">
	.st0{fill:#FFFFFF;}
</style>
<g>
	<path class="st0" d="M721.887,274.675h-30.643V155.273c0-32.757-11.623-62.343-47.55-62.343c-26.417,0-52.833,22.19-52.833,57.06
		v123.629h-30.643V124.629c0-21.133-1.057-35.927-1.057-52.833h27.473l2.113,32.757h1.057c9.51-20.077,33.813-38.04,65.513-38.04
		c25.36,0,68.683,14.793,68.683,83.476v124.686H721.887z"/>
	<path class="st0" d="M469.345,256.712c0-23.247-14.793-49.663-40.153-49.663c-25.36,0-40.153,26.417-40.153,49.663
		c0,23.247,14.793,49.663,40.153,49.663C454.551,305.319,469.345,278.902,469.345,256.712z M392.208,33.757
		c-25.36,0-40.153,26.417-40.153,49.663s14.793,49.663,40.153,49.663c25.36,0,40.153-26.417,40.153-49.663
		C432.361,59.116,417.568,33.757,392.208,33.757z M361.565,227.126c-16.907-2.113-31.7-14.793-31.7-30.643
		c0-20.077,16.907-30.643,33.813-38.04l0,0c-10.567-5.283-20.077-12.68-27.473-23.247c-10.567-14.793-16.907-33.813-16.907-52.833
		C319.299,42.21,346.772,1,392.208,1l0,0c15.85,0,31.7,5.283,43.323,15.85l0,0h50.72v26.417h-30.643l0,0
		c5.283,11.623,8.453,25.36,8.453,39.096c0,39.096-25.36,78.193-67.626,81.363l0,0c-14.793,5.283-29.587,13.737-29.587,26.417
		c0,4.227,3.17,7.397,8.453,9.51l0,0c13.737-16.907,31.7-25.36,52.833-25.36c45.436,0,72.91,41.21,72.91,81.363
		c0,13.737-3.17,27.473-8.453,39.096l0,0h30.643v26.417h-50.72l0,0c-12.68,10.567-27.473,15.85-43.323,15.85l0,0
		c-45.436,0-72.91-41.21-72.91-81.363C356.282,246.146,358.395,236.636,361.565,227.126L361.565,227.126z"/>
	<path class="st0" d="M279.145,274.675h-30.643V158.443c0-39.096-13.737-64.456-44.38-64.456c-25.36,0-47.55,23.247-47.55,53.89
		v127.856h-30.643V149.989c0-32.757-13.737-57.06-42.266-57.06C57.246,92.93,34,119.346,34,151.046v123.629H3.357V124.629
		c0-21.133-1.057-35.927-1.057-52.833h27.473l2.113,32.757h1.057C43.51,85.533,62.53,67.57,94.23,67.57
		c26.417,0,46.493,15.85,54.946,40.153h1.057c13.737-24.303,33.813-40.153,65.513-40.153c25.36,0,64.456,15.85,64.456,85.59v121.516
		H279.145z"/>
</g>
</svg>
